<svg width="185" height="26" viewBox="0 0 185 26" fill="none" xmlns="http://www.w3.org/2000/svg">
<path d="M168.188 8.04688V18H166.868V8.04688H168.188ZM174.196 8.04688L170.061 12.6885L167.736 15.1016L167.518 13.6934L169.268 11.7656L172.61 8.04688H174.196ZM172.925 18L169.24 13.1465L170.026 12.1006L174.497 18H172.925ZM180.257 13.3447H177.735L177.721 12.2852H180.011C180.389 12.2852 180.72 12.2214 181.002 12.0938C181.285 11.9661 181.503 11.7839 181.658 11.5469C181.818 11.3053 181.898 11.0182 181.898 10.6855C181.898 10.321 181.827 10.0247 181.686 9.79688C181.549 9.56445 181.337 9.39583 181.05 9.29102C180.767 9.18164 180.407 9.12695 179.97 9.12695H178.029V18H176.709V8.04688H179.97C180.48 8.04688 180.936 8.09928 181.337 8.2041C181.738 8.30436 182.078 8.46387 182.356 8.68262C182.638 8.89681 182.852 9.17025 182.998 9.50293C183.144 9.83561 183.217 10.2344 183.217 10.6992C183.217 11.1094 183.112 11.4808 182.903 11.8135C182.693 12.1416 182.401 12.4105 182.028 12.6201C181.658 12.8298 181.225 12.9642 180.729 13.0234L180.257 13.3447ZM180.196 18H177.215L177.96 16.9268H180.196C180.615 16.9268 180.97 16.8538 181.262 16.708C181.558 16.5622 181.784 16.3571 181.939 16.0928C182.094 15.8239 182.171 15.5072 182.171 15.1426C182.171 14.7734 182.105 14.4544 181.973 14.1855C181.841 13.9167 181.633 13.7093 181.351 13.5635C181.068 13.4176 180.704 13.3447 180.257 13.3447H178.377L178.391 12.2852H180.961L181.241 12.668C181.72 12.709 182.126 12.8457 182.458 13.0781C182.791 13.306 183.044 13.5977 183.217 13.9531C183.395 14.3086 183.484 14.7005 183.484 15.1289C183.484 15.7487 183.347 16.2728 183.073 16.7012C182.805 17.125 182.424 17.4486 181.932 17.6719C181.44 17.8906 180.861 18 180.196 18Z" fill="#F3F3F3"/>
<path fill-rule="evenodd" clip-rule="evenodd" d="M7.50416 7.38327C8.04533 3.21881 11.6611 0 16.041 0C20.421 0 24.0368 3.21901 24.5778 7.38365C28.809 7.9175 32.0789 11.4742 32.0789 15.7823C32.0789 20.459 28.2255 24.2501 23.4722 24.2501C22.69 24.2501 21.9323 24.1475 21.212 23.9551C19.717 25.1881 17.7897 25.9305 15.6863 25.9305C13.6563 25.9305 11.7905 25.2391 10.3189 24.0826C9.76555 24.1925 9.19298 24.2501 8.60672 24.2501C3.85336 24.2501 0 20.459 0 15.7823C0 11.4732 3.27151 7.91579 7.50416 7.38327Z" fill="#2F6EDE"/>
<path d="M12.5078 12.0853C11.9173 11.5043 10.9676 11.5121 10.3866 12.1026C9.80556 12.6931 9.81328 13.6428 10.4038 14.2238L12.5078 12.0853ZM21.6734 14.2238C22.2639 13.6428 22.2717 12.6931 21.6907 12.1026C21.1097 11.5121 20.1599 11.5043 19.5694 12.0853L21.6734 14.2238ZM16.0386 17.6634L14.9866 18.7327C15.5704 19.307 16.5069 19.307 17.0906 18.7327L16.0386 17.6634ZM10.4038 14.2238L14.9866 18.7327L17.0906 16.5942L12.5078 12.0853L10.4038 14.2238ZM17.0906 18.7327L21.6734 14.2238L19.5694 12.0853L14.9866 16.5942L17.0906 18.7327Z" fill="#F3F3F3"/>
<path d="M40.1471 19.6373C40.0482 19.6373 39.9554 19.6002 39.8689 19.526C39.7947 19.4518 39.7576 19.359 39.7576 19.2478L39.7947 19.0808L44.2651 7.11642C44.3516 6.80726 44.5681 6.65268 44.9143 6.65268H46.9362C47.2577 6.65268 47.4741 6.80726 47.5854 7.11642L52.0558 19.0808C52.0682 19.1179 52.0744 19.1736 52.0744 19.2478C52.0744 19.359 52.0373 19.4518 51.9631 19.526C51.8889 19.6002 51.8023 19.6373 51.7034 19.6373H50.0896C49.9288 19.6373 49.8052 19.6002 49.7186 19.526C49.6321 19.4518 49.5764 19.3714 49.5517 19.2849L48.6798 17.0218H43.1707L42.2988 19.2849C42.1999 19.5198 42.0206 19.6373 41.7609 19.6373H40.1471ZM48.0306 14.8886L45.916 9.15686L43.8199 14.8886H48.0306Z" fill="white"/>
<path d="M57.0549 19.8228C55.8059 19.8228 54.8475 19.4209 54.1798 18.6171C53.512 17.8133 53.1534 16.7436 53.1039 15.408L53.0853 14.7959L53.1039 14.2023C53.141 12.9038 53.4934 11.8465 54.1612 11.0304C54.8413 10.2142 55.8059 9.80609 57.0549 9.80609C58.2544 9.80609 59.2066 10.2142 59.9115 11.0304V6.91238C59.9115 6.77635 59.9548 6.67123 60.0414 6.59704C60.1279 6.51047 60.2331 6.46719 60.3567 6.46719H61.9334C62.0694 6.46719 62.1746 6.51047 62.2488 6.59704C62.3353 6.67123 62.3786 6.77635 62.3786 6.91238V19.1921C62.3786 19.3158 62.3353 19.4209 62.2488 19.5074C62.1746 19.594 62.0694 19.6373 61.9334 19.6373H60.468C60.3443 19.6373 60.2392 19.594 60.1527 19.5074C60.0661 19.4209 60.0228 19.3158 60.0228 19.1921V18.5058C59.3179 19.3838 58.3286 19.8228 57.0549 19.8228ZM57.7412 17.838C58.4585 17.838 58.9902 17.6092 59.3365 17.1517C59.6828 16.6941 59.8744 16.1314 59.9115 15.4637C59.9239 15.3153 59.9301 15.0741 59.9301 14.7402C59.9301 14.4187 59.9239 14.1838 59.9115 14.0354C59.8868 13.417 59.6889 12.8915 59.3179 12.4587C58.9593 12.0135 58.4338 11.7909 57.7412 11.7909C56.4057 11.7909 55.6946 12.6132 55.6081 14.258L55.5895 14.8144L55.6081 15.3709C55.6946 17.0156 56.4057 17.838 57.7412 17.838Z" fill="white"/>
<path d="M70.1189 19.8228C68.4248 19.8228 67.1016 19.3838 66.1494 18.5058C65.2095 17.6278 64.7087 16.4035 64.6469 14.833C64.6345 14.4744 64.6283 13.8993 64.6283 13.1079C64.6283 12.3164 64.6345 11.7414 64.6469 11.3828C64.7087 9.84937 65.2157 8.64984 66.1679 7.7842C67.1325 6.90619 68.4495 6.46719 70.1189 6.46719C71.2566 6.46719 72.2336 6.65887 73.0497 7.04222C73.8659 7.42558 74.4842 7.90786 74.9047 8.48908C75.3251 9.05793 75.5477 9.62059 75.5725 10.1771V10.2142C75.5725 10.3131 75.5354 10.3997 75.4612 10.4739C75.387 10.5357 75.2942 10.5666 75.1829 10.5666H73.2723C73.1487 10.5666 73.0559 10.5481 72.9941 10.511C72.9323 10.4615 72.8766 10.3811 72.8272 10.2698C72.654 9.81227 72.351 9.42273 71.9182 9.10121C71.4854 8.76732 70.8856 8.60037 70.1189 8.60037C69.2533 8.60037 68.5731 8.83533 68.0785 9.30525C67.5962 9.77517 67.3365 10.4986 67.2994 11.4755C67.2871 11.8342 67.2809 12.3783 67.2809 13.1079C67.2809 13.8251 67.2871 14.3693 67.2994 14.7402C67.3736 16.7065 68.3258 17.6896 70.156 17.6896C71.034 17.6896 71.7389 17.4546 72.2707 16.9847C72.8024 16.5024 73.0683 15.7914 73.0683 14.8515V14.2765H70.8053C70.6692 14.2765 70.5579 14.2332 70.4714 14.1467C70.3972 14.0601 70.3601 13.9488 70.3601 13.8128V12.8296C70.3601 12.6936 70.3972 12.5823 70.4714 12.4958C70.5579 12.4092 70.6692 12.3659 70.8053 12.3659H75.2386C75.3746 12.3659 75.4797 12.4092 75.5539 12.4958C75.6405 12.5823 75.6838 12.6936 75.6838 12.8296V14.7773C75.6838 15.8037 75.455 16.7003 74.9974 17.467C74.5522 18.2213 73.9092 18.8026 73.0683 19.2107C72.2274 19.6187 71.2443 19.8228 70.1189 19.8228Z" fill="white"/>
<path d="M81.4192 19.8228C80.2815 19.8228 79.3849 19.4518 78.7295 18.7098C78.0741 17.9555 77.7464 16.9353 77.7464 15.6492V10.4368C77.7464 10.3131 77.7897 10.208 77.8762 10.1214C77.9628 10.0349 78.0679 9.99158 78.1916 9.99158H79.8239C79.9599 9.99158 80.0651 10.0349 80.1393 10.1214C80.2258 10.1956 80.2691 10.3007 80.2691 10.4368V15.5379C80.2691 17.0713 80.9431 17.838 82.291 17.838C82.934 17.838 83.4411 17.634 83.812 17.2259C84.1954 16.8178 84.3871 16.2551 84.3871 15.5379V10.4368C84.3871 10.3131 84.4304 10.208 84.5169 10.1214C84.6035 10.0349 84.7086 9.99158 84.8323 9.99158H86.4646C86.6006 9.99158 86.7058 10.0349 86.7799 10.1214C86.8665 10.1956 86.9098 10.3007 86.9098 10.4368V19.1921C86.9098 19.3158 86.8665 19.4209 86.7799 19.5074C86.7058 19.594 86.6006 19.6373 86.4646 19.6373H84.9621C84.8384 19.6373 84.7333 19.594 84.6468 19.5074C84.5602 19.4209 84.5169 19.3158 84.5169 19.1921V18.4316C83.8244 19.359 82.7918 19.8228 81.4192 19.8228Z" fill="white"/>
<path d="M92.161 19.8228C91.5303 19.8228 90.9491 19.6991 90.4174 19.4518C89.898 19.1921 89.4837 18.8458 89.1746 18.413C88.8778 17.9802 88.7294 17.5041 88.7294 16.9847C88.7294 16.1438 89.0695 15.4637 89.7496 14.9443C90.4297 14.4249 91.3634 14.0725 92.5506 13.887L95.0918 13.516V13.1264C95.0918 12.5823 94.9558 12.1742 94.6837 11.9022C94.4117 11.6301 93.9727 11.4941 93.3667 11.4941C92.9586 11.4941 92.6248 11.5745 92.3651 11.7352C92.1177 11.8836 91.9199 12.032 91.7715 12.1804C91.6231 12.3412 91.5242 12.4463 91.4747 12.4958C91.4252 12.6442 91.3325 12.7183 91.1965 12.7183H89.7681C89.6568 12.7183 89.5579 12.6813 89.4714 12.6071C89.3972 12.5329 89.3601 12.4339 89.3601 12.3103C89.3724 12.0011 89.5208 11.6487 89.8052 11.2529C90.102 10.8572 90.5534 10.5172 91.1594 10.2327C91.7653 9.9483 92.5073 9.80609 93.3853 9.80609C94.8445 9.80609 95.908 10.1338 96.5758 10.7892C97.2436 11.4446 97.5775 12.3041 97.5775 13.3676V19.1921C97.5775 19.3158 97.5342 19.4209 97.4476 19.5074C97.3734 19.594 97.2683 19.6373 97.1323 19.6373H95.6298C95.5061 19.6373 95.401 19.594 95.3144 19.5074C95.2279 19.4209 95.1846 19.3158 95.1846 19.1921V18.4687C94.9125 18.8644 94.523 19.1921 94.016 19.4518C93.5213 19.6991 92.903 19.8228 92.161 19.8228ZM92.7917 18.0606C93.4719 18.0606 94.0283 17.838 94.4612 17.3928C94.894 16.9476 95.1104 16.2984 95.1104 15.4451V15.0556L93.2554 15.3524C92.5382 15.4637 91.9941 15.643 91.6231 15.8903C91.2645 16.1376 91.0852 16.4406 91.0852 16.7992C91.0852 17.1949 91.2521 17.5041 91.586 17.7267C91.9199 17.9493 92.3218 18.0606 92.7917 18.0606Z" fill="white"/>
<path d="M100.402 19.6373C100.279 19.6373 100.174 19.594 100.087 19.5074C100 19.4209 99.9571 19.3158 99.9571 19.1921V10.4553C99.9571 10.3317 100 10.2265 100.087 10.14C100.174 10.041 100.279 9.99158 100.402 9.99158H101.905C102.041 9.99158 102.152 10.0349 102.239 10.1214C102.325 10.208 102.369 10.3193 102.369 10.4553V11.2158C102.665 10.8201 103.036 10.5171 103.482 10.3069C103.939 10.0967 104.458 9.99158 105.04 9.99158H105.8C105.936 9.99158 106.041 10.0349 106.116 10.1214C106.202 10.1956 106.245 10.3007 106.245 10.4368V11.7723C106.245 11.896 106.202 12.0011 106.116 12.0877C106.041 12.1742 105.936 12.2175 105.8 12.2175H104.353C103.772 12.2175 103.315 12.3845 102.981 12.7183C102.647 13.0522 102.48 13.5098 102.48 14.091V19.1921C102.48 19.3158 102.437 19.4209 102.35 19.5074C102.263 19.594 102.152 19.6373 102.016 19.6373H100.402Z" fill="white"/>
<path d="M111.127 19.8228C109.878 19.8228 108.92 19.4209 108.252 18.6171C107.584 17.8133 107.226 16.7436 107.176 15.408L107.158 14.7959L107.176 14.2023C107.213 12.9038 107.566 11.8465 108.234 11.0304C108.914 10.2142 109.878 9.80609 111.127 9.80609C112.327 9.80609 113.279 10.2142 113.984 11.0304V6.91238C113.984 6.77635 114.027 6.67123 114.114 6.59704C114.2 6.51047 114.305 6.46719 114.429 6.46719H116.006C116.142 6.46719 116.247 6.51047 116.321 6.59704C116.408 6.67123 116.451 6.77635 116.451 6.91238V19.1921C116.451 19.3158 116.408 19.4209 116.321 19.5074C116.247 19.594 116.142 19.6373 116.006 19.6373H114.54C114.417 19.6373 114.312 19.594 114.225 19.5074C114.138 19.4209 114.095 19.3158 114.095 19.1921V18.5058C113.39 19.3838 112.401 19.8228 111.127 19.8228ZM111.814 17.838C112.531 17.838 113.063 17.6092 113.409 17.1517C113.755 16.6941 113.947 16.1314 113.984 15.4637C113.996 15.3153 114.002 15.0741 114.002 14.7402C114.002 14.4187 113.996 14.1838 113.984 14.0354C113.959 13.417 113.761 12.8915 113.39 12.4587C113.032 12.0135 112.506 11.7909 111.814 11.7909C110.478 11.7909 109.767 12.6132 109.68 14.258L109.662 14.8144L109.68 15.3709C109.767 17.0156 110.478 17.838 111.814 17.838Z" fill="white"/>
<path d="M123.41 19.6373C123.286 19.6373 123.175 19.594 123.076 19.5074C122.99 19.4085 122.946 19.2972 122.946 19.1736V7.11642C122.946 6.98039 122.99 6.86909 123.076 6.78253C123.175 6.69597 123.286 6.65268 123.41 6.65268H128.233C130.051 6.65268 131.461 7.0855 132.462 7.95114C133.464 8.81679 133.99 10.072 134.039 11.7167C134.051 12.0753 134.058 12.5514 134.058 13.145C134.058 13.7386 134.051 14.2085 134.039 14.5547C133.977 16.2737 133.464 17.5536 132.499 18.3945C131.547 19.223 130.156 19.6373 128.326 19.6373H123.41ZM128.233 16.9662C129.049 16.9662 129.649 16.7745 130.032 16.3911C130.416 15.9954 130.62 15.3709 130.644 14.5176C130.669 14.159 130.682 13.6953 130.682 13.1264C130.682 12.5576 130.669 12.1 130.644 11.7538C130.62 10.9252 130.397 10.3131 129.977 9.91738C129.569 9.52166 128.956 9.3238 128.14 9.3238H126.285V16.9662H128.233Z" fill="white"/>
<path d="M136.688 19.6373C136.565 19.6373 136.453 19.594 136.354 19.5074C136.268 19.4085 136.224 19.2972 136.224 19.1736V7.11642C136.224 6.98039 136.268 6.86909 136.354 6.78253C136.453 6.69597 136.565 6.65268 136.688 6.65268H138.654C138.964 6.65268 139.174 6.77016 139.285 7.00512L143.811 14.1281V7.11642C143.811 6.98039 143.854 6.86909 143.941 6.78253C144.04 6.69597 144.151 6.65268 144.275 6.65268H146.501C146.637 6.65268 146.748 6.69597 146.835 6.78253C146.921 6.86909 146.965 6.98039 146.965 7.11642V19.155C146.965 19.291 146.921 19.4085 146.835 19.5074C146.748 19.594 146.637 19.6373 146.501 19.6373H144.516C144.244 19.6373 144.04 19.5198 143.904 19.2849L139.378 12.4216V19.1736C139.378 19.2972 139.335 19.4085 139.248 19.5074C139.161 19.594 139.05 19.6373 138.914 19.6373H136.688Z" fill="white"/>
<path d="M154.398 19.8228C153.223 19.8228 152.216 19.6497 151.375 19.3034C150.534 18.9571 149.897 18.5058 149.464 17.9493C149.044 17.3804 148.821 16.7621 148.796 16.0943C148.796 15.9954 148.833 15.9089 148.908 15.8347C148.994 15.7481 149.093 15.7048 149.204 15.7048H151.542C151.69 15.7048 151.808 15.7357 151.894 15.7976C151.993 15.847 152.092 15.9274 152.191 16.0387C152.352 16.3602 152.611 16.6261 152.97 16.8363C153.329 17.0466 153.805 17.1517 154.398 17.1517C155.103 17.1517 155.641 17.0404 156.012 16.8178C156.383 16.5952 156.569 16.2922 156.569 15.9089C156.569 15.6368 156.47 15.4142 156.272 15.2411C156.086 15.0679 155.789 14.9134 155.381 14.7773C154.973 14.6413 154.367 14.4867 153.564 14.3136C152.08 14.0044 150.967 13.5531 150.225 12.9595C149.495 12.3535 149.13 11.4941 149.13 10.3811C149.13 9.62678 149.34 8.95281 149.761 8.35923C150.181 7.76565 150.781 7.30191 151.56 6.96802C152.339 6.63413 153.248 6.46719 154.287 6.46719C155.363 6.46719 156.297 6.65268 157.088 7.02367C157.879 7.39466 158.479 7.86458 158.887 8.43343C159.308 8.98991 159.53 9.54021 159.555 10.0843C159.555 10.1956 159.518 10.2884 159.444 10.3626C159.37 10.4368 159.277 10.4739 159.165 10.4739H156.717C156.569 10.4739 156.445 10.4491 156.346 10.3997C156.259 10.3502 156.179 10.2698 156.105 10.1585C156.031 9.8741 155.827 9.63296 155.493 9.4351C155.171 9.23724 154.769 9.13831 154.287 9.13831C153.731 9.13831 153.304 9.23724 153.007 9.4351C152.71 9.63296 152.562 9.92357 152.562 10.3069C152.562 10.5666 152.642 10.783 152.803 10.9562C152.976 11.1293 153.248 11.29 153.619 11.4384C154.003 11.5745 154.547 11.7167 155.252 11.8651C156.402 12.0753 157.317 12.3412 157.997 12.6627C158.689 12.9719 159.196 13.3799 159.518 13.887C159.839 14.3816 160 15.0061 160 15.7605C160 16.589 159.759 17.3124 159.277 17.9307C158.807 18.5367 158.145 19.0066 157.292 19.3405C156.451 19.662 155.487 19.8228 154.398 19.8228Z" fill="white"/>
</svg>
