<svg width="160" height="26" viewBox="0 0 160 26" fill="none" xmlns="http://www.w3.org/2000/svg">
<path fill-rule="evenodd" clip-rule="evenodd" d="M7.50416 7.38327C8.04533 3.21881 11.6611 0 16.041 0C20.421 0 24.0368 3.21901 24.5778 7.38365C28.809 7.9175 32.0789 11.4742 32.0789 15.7823C32.0789 20.459 28.2255 24.2501 23.4722 24.2501C22.69 24.2501 21.9323 24.1475 21.212 23.9551C19.717 25.1881 17.7897 25.9305 15.6863 25.9305C13.6563 25.9305 11.7905 25.2391 10.3189 24.0826C9.76555 24.1925 9.19298 24.2501 8.60672 24.2501C3.85336 24.2501 0 20.459 0 15.7823C0 11.4732 3.27151 7.91579 7.50416 7.38327Z" fill="#2F6EDE"/>
<path d="M12.5077 12.0853C11.9172 11.5043 10.9675 11.512 10.3865 12.1025C9.80545 12.6931 9.81317 13.6428 10.4037 14.2238L12.5077 12.0853ZM21.6733 14.2238C22.2638 13.6428 22.2716 12.6931 21.6906 12.1025C21.1096 11.512 20.1598 11.5043 19.5693 12.0853L21.6733 14.2238ZM16.0385 17.6634L14.9865 18.7326C15.5703 19.307 16.5068 19.307 17.0905 18.7326L16.0385 17.6634ZM10.4037 14.2238L14.9865 18.7326L17.0905 16.5941L12.5077 12.0853L10.4037 14.2238ZM17.0905 18.7326L21.6733 14.2238L19.5693 12.0853L14.9865 16.5941L17.0905 18.7326Z" fill="#F3F3F3"/>
<path d="M40.1471 19.6374C40.0482 19.6374 39.9554 19.6003 39.8688 19.5261C39.7946 19.4519 39.7575 19.3591 39.7575 19.2478L39.7946 19.0809L44.2651 7.11652C44.3516 6.80736 44.568 6.65278 44.9143 6.65278H46.9362C47.2577 6.65278 47.4741 6.80736 47.5854 7.11652L52.0558 19.0809C52.0682 19.118 52.0744 19.1736 52.0744 19.2478C52.0744 19.3591 52.0373 19.4519 51.9631 19.5261C51.8889 19.6003 51.8023 19.6374 51.7034 19.6374H50.0896C49.9288 19.6374 49.8052 19.6003 49.7186 19.5261C49.632 19.4519 49.5764 19.3715 49.5517 19.2849L48.6798 17.0219H43.1706L42.2988 19.2849C42.1999 19.5199 42.0206 19.6374 41.7609 19.6374H40.1471ZM48.0306 14.8887L45.916 9.15695L43.8199 14.8887H48.0306Z" fill="black"/>
<path d="M57.0549 19.8229C55.8059 19.8229 54.8475 19.421 54.1797 18.6172C53.512 17.8134 53.1533 16.7437 53.1039 15.4081L53.0853 14.796L53.1039 14.2024C53.141 12.9039 53.4934 11.8466 54.1612 11.0304C54.8413 10.2143 55.8059 9.80618 57.0549 9.80618C58.2544 9.80618 59.2066 10.2143 59.9115 11.0304V6.91247C59.9115 6.77644 59.9548 6.67133 60.0414 6.59713C60.1279 6.51057 60.233 6.46729 60.3567 6.46729H61.9334C62.0694 6.46729 62.1745 6.51057 62.2487 6.59713C62.3353 6.67133 62.3786 6.77644 62.3786 6.91247V19.1922C62.3786 19.3159 62.3353 19.421 62.2487 19.5075C62.1745 19.5941 62.0694 19.6374 61.9334 19.6374H60.468C60.3443 19.6374 60.2392 19.5941 60.1527 19.5075C60.0661 19.421 60.0228 19.3159 60.0228 19.1922V18.5059C59.3179 19.3839 58.3286 19.8229 57.0549 19.8229ZM57.7412 17.8381C58.4585 17.8381 58.9902 17.6093 59.3365 17.1518C59.6827 16.6942 59.8744 16.1315 59.9115 15.4638C59.9239 15.3154 59.9301 15.0742 59.9301 14.7403C59.9301 14.4188 59.9239 14.1839 59.9115 14.0355C59.8868 13.4171 59.6889 12.8916 59.3179 12.4588C58.9593 12.0136 58.4337 11.791 57.7412 11.791C56.4057 11.791 55.6946 12.6133 55.608 14.258L55.5895 14.8145L55.608 15.371C55.6946 17.0157 56.4057 17.8381 57.7412 17.8381Z" fill="black"/>
<path d="M70.1189 19.8229C68.4247 19.8229 67.1015 19.3839 66.1493 18.5059C65.2095 17.6279 64.7087 16.4036 64.6468 14.8331C64.6345 14.4745 64.6283 13.8994 64.6283 13.108C64.6283 12.3165 64.6345 11.7415 64.6468 11.3829C64.7087 9.84947 65.2157 8.64994 66.1679 7.78429C67.1325 6.90629 68.4495 6.46729 70.1189 6.46729C71.2566 6.46729 72.2336 6.65896 73.0497 7.04232C73.8659 7.42567 74.4842 7.90796 74.9047 8.48917C75.3251 9.05802 75.5477 9.62069 75.5725 10.1772V10.2143C75.5725 10.3132 75.5354 10.3998 75.4612 10.474C75.387 10.5358 75.2942 10.5667 75.1829 10.5667H73.2723C73.1487 10.5667 73.0559 10.5482 72.9941 10.5111C72.9322 10.4616 72.8766 10.3812 72.8271 10.2699C72.654 9.81237 72.351 9.42283 71.9182 9.10131C71.4854 8.76742 70.8856 8.60047 70.1189 8.60047C69.2533 8.60047 68.5731 8.83543 68.0785 9.30535C67.5962 9.77527 67.3365 10.4987 67.2994 11.4756C67.287 11.8343 67.2809 12.3784 67.2809 13.108C67.2809 13.8252 67.287 14.3693 67.2994 14.7403C67.3736 16.7066 68.3258 17.6897 70.156 17.6897C71.034 17.6897 71.7389 17.4547 72.2706 16.9848C72.8024 16.5025 73.0683 15.7915 73.0683 14.8516V14.2766H70.8052C70.6692 14.2766 70.5579 14.2333 70.4714 14.1468C70.3972 14.0602 70.3601 13.9489 70.3601 13.8129V12.8297C70.3601 12.6937 70.3972 12.5824 70.4714 12.4959C70.5579 12.4093 70.6692 12.366 70.8052 12.366H75.2386C75.3746 12.366 75.4797 12.4093 75.5539 12.4959C75.6405 12.5824 75.6837 12.6937 75.6837 12.8297V14.7774C75.6837 15.8038 75.455 16.7004 74.9974 17.4671C74.5522 18.2214 73.9092 18.8027 73.0683 19.2107C72.2274 19.6188 71.2442 19.8229 70.1189 19.8229Z" fill="black"/>
<path d="M81.4191 19.8229C80.2814 19.8229 79.3849 19.4519 78.7295 18.7099C78.0741 17.9556 77.7464 16.9354 77.7464 15.6493V10.4369C77.7464 10.3132 77.7896 10.2081 77.8762 10.1215C77.9628 10.035 78.0679 9.99168 78.1915 9.99168H79.8239C79.9599 9.99168 80.065 10.035 80.1392 10.1215C80.2258 10.1957 80.2691 10.3008 80.2691 10.4369V15.538C80.2691 17.0714 80.943 17.8381 82.291 17.8381C82.934 17.8381 83.441 17.634 83.812 17.226C84.1954 16.8179 84.3871 16.2552 84.3871 15.538V10.4369C84.3871 10.3132 84.4303 10.2081 84.5169 10.1215C84.6035 10.035 84.7086 9.99168 84.8322 9.99168H86.4646C86.6006 9.99168 86.7057 10.035 86.7799 10.1215C86.8665 10.1957 86.9098 10.3008 86.9098 10.4369V19.1922C86.9098 19.3159 86.8665 19.421 86.7799 19.5075C86.7057 19.5941 86.6006 19.6374 86.4646 19.6374H84.9621C84.8384 19.6374 84.7333 19.5941 84.6467 19.5075C84.5602 19.421 84.5169 19.3159 84.5169 19.1922V18.4317C83.8244 19.3591 82.7918 19.8229 81.4191 19.8229Z" fill="black"/>
<path d="M92.161 19.8229C91.5303 19.8229 90.9491 19.6992 90.4174 19.4519C89.898 19.1922 89.4837 18.8459 89.1745 18.4131C88.8778 17.9803 88.7294 17.5042 88.7294 16.9848C88.7294 16.1439 89.0694 15.4638 89.7496 14.9444C90.4297 14.425 91.3634 14.0726 92.5505 13.8871L95.0918 13.5161V13.1265C95.0918 12.5824 94.9558 12.1743 94.6837 11.9023C94.4117 11.6302 93.9727 11.4942 93.3667 11.4942C92.9586 11.4942 92.6247 11.5746 92.365 11.7353C92.1177 11.8837 91.9199 12.0321 91.7715 12.1805C91.6231 12.3413 91.5241 12.4464 91.4747 12.4959C91.4252 12.6442 91.3325 12.7184 91.1964 12.7184H89.7681C89.6568 12.7184 89.5579 12.6813 89.4713 12.6071C89.3971 12.533 89.36 12.434 89.36 12.3104C89.3724 12.0012 89.5208 11.6488 89.8052 11.253C90.102 10.8573 90.5534 10.5172 91.1593 10.2328C91.7653 9.9484 92.5073 9.80618 93.3853 9.80618C94.8445 9.80618 95.908 10.1339 96.5758 10.7893C97.2435 11.4447 97.5774 12.3042 97.5774 13.3677V19.1922C97.5774 19.3159 97.5342 19.421 97.4476 19.5075C97.3734 19.5941 97.2683 19.6374 97.1323 19.6374H95.6297C95.5061 19.6374 95.401 19.5941 95.3144 19.5075C95.2278 19.421 95.1846 19.3159 95.1846 19.1922V18.4688C94.9125 18.8645 94.523 19.1922 94.0159 19.4519C93.5213 19.6992 92.903 19.8229 92.161 19.8229ZM92.7917 18.0607C93.4718 18.0607 94.0283 17.8381 94.4611 17.3929C94.894 16.9477 95.1104 16.2985 95.1104 15.4452V15.0557L93.2554 15.3525C92.5382 15.4638 91.9941 15.6431 91.6231 15.8904C91.2644 16.1377 91.0851 16.4407 91.0851 16.7993C91.0851 17.195 91.2521 17.5042 91.586 17.7268C91.9199 17.9494 92.3218 18.0607 92.7917 18.0607Z" fill="black"/>
<path d="M100.402 19.6374C100.279 19.6374 100.174 19.5941 100.087 19.5075C100 19.421 99.9571 19.3159 99.9571 19.1922V10.4554C99.9571 10.3318 100 10.2266 100.087 10.1401C100.174 10.0411 100.279 9.99168 100.402 9.99168H101.905C102.041 9.99168 102.152 10.035 102.239 10.1215C102.325 10.2081 102.369 10.3194 102.369 10.4554V11.2159C102.665 10.8202 103.036 10.5172 103.482 10.307C103.939 10.0968 104.458 9.99168 105.04 9.99168H105.8C105.936 9.99168 106.041 10.035 106.116 10.1215C106.202 10.1957 106.245 10.3008 106.245 10.4369V11.7724C106.245 11.8961 106.202 12.0012 106.116 12.0878C106.041 12.1743 105.936 12.2176 105.8 12.2176H104.353C103.772 12.2176 103.315 12.3846 102.981 12.7184C102.647 13.0523 102.48 13.5099 102.48 14.0911V19.1922C102.48 19.3159 102.437 19.421 102.35 19.5075C102.263 19.5941 102.152 19.6374 102.016 19.6374H100.402Z" fill="black"/>
<path d="M111.127 19.8229C109.878 19.8229 108.92 19.421 108.252 18.6172C107.584 17.8134 107.226 16.7437 107.176 15.4081L107.158 14.796L107.176 14.2024C107.213 12.9039 107.566 11.8466 108.234 11.0304C108.914 10.2143 109.878 9.80618 111.127 9.80618C112.327 9.80618 113.279 10.2143 113.984 11.0304V6.91247C113.984 6.77644 114.027 6.67133 114.114 6.59713C114.2 6.51057 114.305 6.46729 114.429 6.46729H116.006C116.142 6.46729 116.247 6.51057 116.321 6.59713C116.408 6.67133 116.451 6.77644 116.451 6.91247V19.1922C116.451 19.3159 116.408 19.421 116.321 19.5075C116.247 19.5941 116.142 19.6374 116.006 19.6374H114.54C114.417 19.6374 114.312 19.5941 114.225 19.5075C114.138 19.421 114.095 19.3159 114.095 19.1922V18.5059C113.39 19.3839 112.401 19.8229 111.127 19.8229ZM111.814 17.8381C112.531 17.8381 113.063 17.6093 113.409 17.1518C113.755 16.6942 113.947 16.1315 113.984 15.4638C113.996 15.3154 114.002 15.0742 114.002 14.7403C114.002 14.4188 113.996 14.1839 113.984 14.0355C113.959 13.4171 113.761 12.8916 113.39 12.4588C113.032 12.0136 112.506 11.791 111.814 11.791C110.478 11.791 109.767 12.6133 109.68 14.258L109.662 14.8145L109.68 15.371C109.767 17.0157 110.478 17.8381 111.814 17.8381Z" fill="black"/>
<path d="M123.41 19.6374C123.286 19.6374 123.175 19.5941 123.076 19.5075C122.99 19.4086 122.946 19.2973 122.946 19.1736V7.11652C122.946 6.98049 122.99 6.86919 123.076 6.78263C123.175 6.69606 123.286 6.65278 123.41 6.65278H128.233C130.051 6.65278 131.461 7.0856 132.462 7.95124C133.464 8.81688 133.989 10.0721 134.039 11.7168C134.051 12.0754 134.058 12.5515 134.058 13.1451C134.058 13.7387 134.051 14.2086 134.039 14.5548C133.977 16.2738 133.464 17.5537 132.499 18.3946C131.547 19.2231 130.156 19.6374 128.326 19.6374H123.41ZM128.233 16.9663C129.049 16.9663 129.649 16.7746 130.032 16.3912C130.416 15.9955 130.62 15.371 130.644 14.5177C130.669 14.1591 130.682 13.6954 130.682 13.1265C130.682 12.5577 130.669 12.1001 130.644 11.7539C130.62 10.9253 130.397 10.3132 129.977 9.91748C129.569 9.52176 128.956 9.3239 128.14 9.3239H126.285V16.9663H128.233Z" fill="black"/>
<path d="M136.688 19.6374C136.565 19.6374 136.453 19.5941 136.354 19.5075C136.268 19.4086 136.224 19.2973 136.224 19.1736V7.11652C136.224 6.98049 136.268 6.86919 136.354 6.78263C136.453 6.69606 136.565 6.65278 136.688 6.65278H138.654C138.964 6.65278 139.174 6.77026 139.285 7.00522L143.811 14.1282V7.11652C143.811 6.98049 143.854 6.86919 143.941 6.78263C144.04 6.69606 144.151 6.65278 144.275 6.65278H146.501C146.637 6.65278 146.748 6.69606 146.835 6.78263C146.921 6.86919 146.965 6.98049 146.965 7.11652V19.1551C146.965 19.2911 146.921 19.4086 146.835 19.5075C146.748 19.5941 146.637 19.6374 146.501 19.6374H144.516C144.244 19.6374 144.04 19.5199 143.904 19.2849L139.378 12.4217V19.1736C139.378 19.2973 139.335 19.4086 139.248 19.5075C139.161 19.5941 139.05 19.6374 138.914 19.6374H136.688Z" fill="black"/>
<path d="M154.398 19.8229C153.223 19.8229 152.216 19.6498 151.375 19.3035C150.534 18.9572 149.897 18.5059 149.464 17.9494C149.044 17.3805 148.821 16.7622 148.796 16.0944C148.796 15.9955 148.833 15.9089 148.908 15.8348C148.994 15.7482 149.093 15.7049 149.204 15.7049H151.542C151.69 15.7049 151.808 15.7358 151.894 15.7977C151.993 15.8471 152.092 15.9275 152.191 16.0388C152.352 16.3603 152.611 16.6262 152.97 16.8364C153.329 17.0466 153.805 17.1518 154.398 17.1518C155.103 17.1518 155.641 17.0405 156.012 16.8179C156.383 16.5953 156.569 16.2923 156.569 15.9089C156.569 15.6369 156.47 15.4143 156.272 15.2412C156.086 15.068 155.789 14.9135 155.381 14.7774C154.973 14.6414 154.367 14.4868 153.564 14.3137C152.08 14.0045 150.967 13.5532 150.225 12.9596C149.495 12.3536 149.13 11.4942 149.13 10.3812C149.13 9.62687 149.34 8.95291 149.761 8.35933C150.181 7.76575 150.781 7.30201 151.56 6.96812C152.339 6.63423 153.248 6.46729 154.287 6.46729C155.363 6.46729 156.296 6.65278 157.088 7.02377C157.879 7.39476 158.479 7.86468 158.887 8.43353C159.308 8.99001 159.53 9.54031 159.555 10.0844C159.555 10.1957 159.518 10.2885 159.444 10.3627C159.37 10.4369 159.277 10.474 159.165 10.474H156.717C156.569 10.474 156.445 10.4492 156.346 10.3998C156.259 10.3503 156.179 10.2699 156.105 10.1586C156.031 9.8742 155.827 9.63306 155.493 9.4352C155.171 9.23733 154.769 9.1384 154.287 9.1384C153.73 9.1384 153.304 9.23733 153.007 9.4352C152.71 9.63306 152.562 9.92366 152.562 10.307C152.562 10.5667 152.642 10.7831 152.803 10.9562C152.976 11.1294 153.248 11.2901 153.619 11.4385C154.003 11.5746 154.547 11.7168 155.252 11.8652C156.402 12.0754 157.317 12.3413 157.997 12.6628C158.689 12.972 159.196 13.38 159.518 13.8871C159.839 14.3817 160 15.0062 160 15.7606C160 16.5891 159.759 17.3125 159.277 17.9308C158.807 18.5368 158.145 19.0067 157.292 19.3406C156.451 19.6621 155.487 19.8229 154.398 19.8229Z" fill="black"/>
</svg>
