<svg width="43" height="58" xmlns="http://www.w3.org/2000/svg" version="1.1">
 <title>Group 22</title>
 <defs>
  <linearGradient id="linearGradient-1" y2="-65.7580643%" x2="50.0000003%" y1="122.470134%" x1="50.0000003%">
   <stop offset="0%" stop-color="#81A747"/>
   <stop offset="100%" stop-color="#6EACB9"/>
  </linearGradient>
 </defs>
 <g>
  <title>Layer 1</title>
  <g id="Group">
   <ellipse ry="21.4378" rx="21.38648" cy="21.4378" cx="21.60509" fill="#FFFFFF" id="Oval-5"/>
   <g id="Group-12-5">
    <path fill="#000000" id="Path-13" d="m20.9269,12.8737c4.545,0.23591 9.05403,0.79722 13.07882,3.30675c2.41074,1.50311 3.84172,3.66651 3.88434,6.55891c0.06684,4.53661 -3.15813,6.86579 -7.3832,6.35681c-1.77682,-0.26923 -3.53439,-0.65344 -5.2617,-1.15022c-3.05711,-0.78121 -6.07926,-0.5554 -9.10041,0.17591c-1.44923,0.35081 -2.86343,0.86619 -4.35617,1.01377c-2.80372,0.27721 -5.73943,-0.71484 -6.76252,-3.48598c-1.34661,-3.47901 -0.04805,-7.42682 3.09877,-9.4207c3.87986,-2.53264 8.27186,-3.13012 12.80207,-3.35525z"/>
    <g fill="#FFFFFF" id="Group-11-5">
     <path id="Path-14" d="m32.51886,21.63813c0.02338,1.64702 -1.10434,3.04989 -2.47,3.07262c-1.21212,0.02018 -2.4125,-1.38053 -2.43178,-2.83767c-0.02116,-1.59704 1.0668,-2.93466 2.43178,-2.98982c1.36593,-0.05521 2.44723,1.1508 2.47,2.75487z"/>
     <path id="Path-15" d="m14.53882,21.63813c0.02338,1.64702 -1.10434,3.04989 -2.47,3.07262c-1.21212,0.02018 -2.41249,-1.38053 -2.43178,-2.83767c-0.02116,-1.59704 1.0668,-2.93466 2.43178,-2.98982c1.36593,-0.05521 2.44724,1.1508 2.47,2.75487z"/>
    </g>
   </g>
   <path fill-rule="nonzero" fill="url(#linearGradient-1)" id="Path-Copy-5" d="m20.49029,57.62208c-7.05365,-4.25432 -11.68319,-9.13959 -14.72168,-14.01485c-0.98076,-1.57363 0.87593,-3.34263 2.42164,-2.32179c8.01085,5.27572 18.38685,5.26068 26.38244,-0.03824c1.54354,-1.02581 3.40652,0.74031 2.42745,2.31608c-3.03821,4.88986 -7.6745,9.79169 -14.74948,14.05878c-0.5422,0.32428 -1.21816,0.32429 -1.76037,0.00002l0,0z"/>
  </g>
 </g>
</svg>